<?xml version="1.0" encoding="UTF-8"?>
<svg id="Layer_2" data-name="Layer 2" xmlns="http://www.w3.org/2000/svg" viewBox="0 0 4261.74 4277.87" fill="#000">
  <g id="Layer_1-2" data-name="Layer 1">
    <g id="Layer_1-2" data-name="Layer 1-2">
      <g id="Z_Logo" data-name="Z Logo">
        <path d="M1303.82,4277.84H0L2954.98,0h1303.82L1303.82,4277.84ZM2085.09,1084.93h-922.81c-298.23,0-551.99-107.8-761.35-323.57C191.55,545.65,86.87,291.9,86.87,0h2729.13l-730.91,1084.93Z"/>
        <path d="M2343.84,3022.18c158.38-159,391.68-327.32,587.93-448.88,196.17-121.55,446.08-192.99,665.74-263.34,219.59-70.32,441-105.49,664.23-105.49v1552.74c0,139.16-59.39,260.71-178.22,364.66-118.79,103.98-263.72,155.96-434.73,155.96h-1120.56c0-169.71,51.31-343.24,153.89-520.62h966.63v-896.77c-216.02,91.74-414.92,214.45-596.71,368.13-181.83,153.65-329,322.63-441.46,506.87-112.53,184.28-168.77,365.09-168.77,542.43h-997.33"/>
      </g>
    </g>
  </g>
</svg>